<svg id="Layer_1" data-name="Layer 1" xmlns="http://www.w3.org/2000/svg" viewBox="0 0 366.81 149.01"><defs><style>.cls-1,.cls-3{fill:#2047ff;}.cls-2{fill:#da3675;}.cls-3{font-size:45.66px;letter-spacing:-0.06em;}.cls-4{letter-spacing:0em;}.cls-5{letter-spacing:-0.01em;}.cls-6{letter-spacing:0em;}.cls-7{letter-spacing:0em;}</style></defs><title>Voterookie Logo</title><path class="cls-1" d="M313.89,32.12h-107a13.56,13.56,0,0,0-13.56,13.56V64.92a13.56,13.56,0,0,0,13.56,13.56h64.63a13.57,13.57,0,0,1,11.75,6.78l9.44,16.35,9.43-16.35a13.59,13.59,0,0,1,11.75-6.78,13.56,13.56,0,0,0,13.56-13.56V45.68A13.56,13.56,0,0,0,313.89,32.12Zm-3.44,23.27a6.13,6.13,0,0,1-6.14,6.13H216.47a6.13,6.13,0,0,1-6.14-6.13V55.3a6.13,6.13,0,0,1,6.14-6.13h87.84a6.13,6.13,0,0,1,6.14,6.13Z"/><path class="cls-2" d="M298.43,61.52H222.35V44.36c0-4,2.87-7.17,6.26-6.91l64.33,5c3.09.24,5.49,3.26,5.49,6.91Z"/><text class="cls-3" transform="translate(40.78 116.9)">V<tspan class="cls-4" x="23.7" y="0">o</tspan><tspan class="cls-5" x="49.91" y="0">t</tspan><tspan class="cls-6" x="66.53" y="0">e</tspan><tspan class="cls-7" x="92.7" y="0">Rookie</tspan></text></svg>